<?xml version="1.0" encoding="UTF-8"?>
<svg width="28px" height="43px" viewBox="0 0 28 43" version="1.1" xmlns="http://www.w3.org/2000/svg" xmlns:xlink="http://www.w3.org/1999/xlink">
    <!-- Generator: Sketch 51.3 (57544) - http://www.bohemiancoding.com/sketch -->
    <title>Jenkins</title>
    <desc>Created with Sketch.</desc>
    <defs></defs>
    <g id="Final" stroke="none" stroke-width="1" fill="none" fill-rule="evenodd">
        <g id="Integrations-Icons" transform="translate(-255.000000, -463.000000)">
            <g id="Jenkins" transform="translate(255.000000, 463.000000)">
                <g transform="translate(14.000000, 21.500000) scale(1, -1) translate(-14.000000, -21.500000) ">
                    <polyline id="path28" fill="#F0D6B7" points="18.5031007 21.7936991 16.2463507 21.4552035 13.1998566 21.116708 11.2252088 21.0603485 9.30715752 21.116708 7.8402531 21.5680918 6.54266416 22.9784336 5.52717743 25.855646 5.30153628 26.4762777 3.94755398 26.9274923 3.15770841 28.225115 2.59357168 30.0868407 3.21423717 31.7229591 4.6809385 32.2307024 5.86567301 31.6664303 6.42994513 30.4253363 7.10693628 30.5382246 7.33250973 30.8201914 7.10693628 32.1178142 7.05040752 33.7539325 7.3889031 36.0105133 7.37568485 37.2995044 8.40438982 38.9440852 10.2097221 40.241708 13.3691044 41.5956903 16.8668131 41.0879469 19.9132732 38.8877257 21.3237843 36.6311449 22.2263827 34.9950265 22.45199 30.9330796 21.7749989 27.4352356 20.5339049 24.3324159 19.3491704 22.6962976"></polyline>
                    <polyline id="path30" fill="#335061" points="16.5848462 12.0338562 8.51724425 11.6953606 8.51724425 10.3413783 9.1942354 5.60244027 8.85573982 5.20741593 3.21423717 7.12567035 2.81921283 7.8026615 2.25507611 14.1775487 0.957690265 18.0138883 0.675520354 18.9164867 5.18868186 22.0193064 6.59919292 22.5835785 7.8402531 21.0603485 8.91213319 20.1012212 10.1533965 19.7063662 10.7174655 19.5371184 11.3944566 16.6035465 11.9022 15.9829487 13.1998566 16.4342987 12.2970889 14.685292 17.2053086 12.3723518 16.5848462 12.0338562"></polyline>
                    <polyline id="path32" fill="#6D6B6D" points="3.21423717 31.7229591 4.6809385 32.2307024 5.86567301 31.6664303 6.42994513 30.4253363 7.10693628 30.5382246 7.27618407 31.2152157 6.9376885 32.5126692 7.27618407 35.6156582 6.99401416 37.3081361 8.00950088 38.4928706 10.2097221 40.241708 9.58912434 41.0879469 6.4862708 39.5647168 5.18868186 38.5492301 4.45529735 36.9696405 3.32695619 35.4464104 2.98846062 33.6410442 3.21423717 31.7229591"></polyline>
                    <path d="M5.52717743,37.026 C5.52717743,37.026 6.37341637,39.113333 9.75837212,40.1288197 C13.1433279,41.1443064 9.92761991,40.8623396 9.92761991,40.8623396 L6.26069735,39.4518285 L4.85018628,38.0414867 L4.22972389,36.9131117 L5.52717743,37.026" id="path34" fill="#DCD9D8"></path>
                    <path d="M3.83469956,32.1178142 C3.83469956,32.1178142 2.64996504,36.067042 7.16326195,36.6311449 L6.99401416,37.3081361 L3.89122832,36.5746162 L2.98846062,33.6410442 L3.21423717,31.7229591 L3.83469956,32.1178142" id="path36" fill="#DCD9D8"></path>
                    <path d="M5.64003186,26.8711327 L6.37871383,27.5868816 C6.37871383,27.5868816 6.71211504,27.5481239 6.76844071,27.1532688 C6.82476637,26.7582445 6.99401416,23.2040409 9.41987655,21.2857865 C9.64115111,21.1107843 7.61467965,21.5680918 7.61467965,21.5680918 L5.80927965,24.3887754" id="path38" fill="#F7E4CD"></path>
                    <path d="M16.0209126,27.942979 C16.0209126,27.942979 16.1524181,29.6530586 16.6129414,29.5215531 C17.0734646,29.3900476 17.0734646,28.9295243 17.0734646,28.9295243 C17.0734646,28.9295243 15.9550752,28.20599 16.0209126,27.942979" id="path40" fill="#F7E4CD"></path>
                    <path d="M20.7031527,34.2051471 C20.7031527,34.2051471 19.7733053,34.0088197 19.6876659,33.1896604 C19.6020265,32.3703319 20.7031527,33.0204126 20.8724004,33.0767721" id="path42" fill="#F7E4CD" fill-rule="nonzero"></path>
                    <path d="M13.8768478,34.1486184 C13.8768478,34.1486184 12.6355845,33.9793706 12.6355845,33.1896604 C12.6355845,32.399781 14.0461294,32.4561405 14.4409845,32.7946361" id="path44" fill="#F7E4CD" fill-rule="nonzero"></path>
                    <path d="M6.20416858,30.4816958 C6.20416858,30.4816958 4.06027301,31.7793186 3.83469956,30.5380553 C3.60905841,29.2969613 3.10117965,28.3941936 4.17319513,27.09674 L3.43981062,27.3223473 L2.76281947,29.0711847 L2.53724602,30.7636626 L3.83469956,32.1178142 L5.30153628,32.0049259 L6.14777522,31.3279347 L6.20416858,30.4816958" id="path46" fill="#F7E4CD"></path>
                    <path d="M7.21965531,34.0358993 C7.21965531,34.0358993 8.17874867,39.0004447 13.0306088,39.9595719 C17.0250597,40.7491128 19.1233938,39.7903241 19.9132732,38.8877257 C19.9132732,38.8877257 16.3590697,43.1187511 12.9740801,41.8212976 C9.58912434,40.5236748 7.10693628,38.1542058 7.16326195,36.6311449 C7.25932699,34.0369148 7.21965531,34.0358993 7.21965531,34.0358993" id="path48" fill="#F7E4CD"></path>
                    <path d="M20.3082976,38.3236228 C20.3082976,38.3236228 18.6723485,38.3799823 18.6158197,36.9131117 C18.6158197,36.9131117 18.6156504,36.6875044 18.7285387,36.4618971 C18.7285387,36.4618971 20.0263308,37.9287677 20.8160409,37.1388883" id="path50" fill="#F7E4CD"></path>
                    <path d="M13.1443264,36.3090664 C13.1443264,36.3090664 12.8626812,38.5605697 10.9431066,37.2516073 C9.70197876,36.4053684 9.81490088,35.2206338 10.0404743,34.9950265 C10.2661155,34.76925 10.2047632,34.3148197 10.3765327,34.6267434 C10.5482177,34.938667 10.4916889,35.9541538 11.1123544,36.2361206 C11.7329522,36.5182566 12.7502837,36.833396 13.1443264,36.3090664" id="path52" fill="#F7E4CD"></path>
                    <path d="M7.8402531,21.0603485 L2.53724602,18.6908794 C2.53724602,18.6908794 4.73746726,9.94635398 3.60905841,7.23838938 L2.81921283,7.52035619 L2.76281947,10.8489863 L1.29618584,17.1674801 L0.675520354,18.9164867 L6.20416858,22.6397688 L7.8402531,21.0603485" id="path54" fill="#49728B"></path>
                    <path d="M8.38555254,16.2237206 L9.13790973,15.3057544 L9.13790973,11.9207987 L8.23514204,11.9207987 C8.23514204,11.9207987 8.12242301,14.2902677 8.12242301,14.5724376 C8.12242301,14.8545398 8.23514204,15.8700265 8.23514204,15.8700265" id="path56" fill="#49728B"></path>
                    <polyline id="path58" fill="#49728B" points="8.40438982 11.4130553 5.86567301 11.3003363 6.59919292 10.7925929 8.40438982 10.5104907"></polyline>
                    <polyline id="path60" fill="#335061" points="17.0925896 11.9773274 19.1799226 12.0337208 19.6876659 6.84336504 17.5438042 6.56139823 17.0925896 11.9773274"></polyline>
                    <path d="M17.6566925,11.9773274 L20.8160409,12.1465752 C20.8160409,12.1465752 22.1134945,15.4186765 22.1134945,15.5879243 C22.1134945,15.7571721 23.2418695,20.3268285 23.2418695,20.3268285 L20.7031527,22.9782644 L20.1954093,23.4296482 L18.841427,22.0756659 L18.841427,16.8289845 L17.6566925,11.9773274" id="path62" fill="#335061"></path>
                    <path d="M19.0670343,12.3722164 L17.0925896,11.9773274 L17.3745564,10.3975686 C18.1079071,10.059073 19.3491704,10.9618407 19.3491704,10.9618407" id="path64" fill="#49728B"></path>
                    <polyline id="path66" fill="#49728B" points="19.1235631 22.2449137 23.0726217 19.3113418 23.18551 20.6653241 20.1954093 23.4296482 19.1235631 22.2449137"></polyline>
                    <polyline id="path68" fill="#FFFFFF" points="10.3622482 0.862833684 9.1942354 5.60244027 8.61330929 9.09957345 8.51724425 11.6953606 13.803665 11.9767858 17.0925896 11.9773274 16.7935288 6.05311327 17.3012721 1.48342978 17.2449126 0.637190841 12.9574261 0.298695265 10.3622482 0.862833684"></polyline>
                    <path d="M16.3590697,12.0337208 C16.3590697,12.0337208 16.0771029,6.16637389 16.9233418,1.99170796 C16.9233418,1.99170796 15.2308639,0.919689093 12.7484389,0.637720586 L17.4874447,0.806968374 L18.0515476,1.14546395 L17.3745564,10.3975686 L17.2053086,12.3723518" id="path70" fill="#DCD9D8"></path>
                    <polyline id="path72" fill="#FFFFFF" points="19.7837987 7.29424115 21.9840199 7.91483894 26.1586858 8.14048009 26.7793175 10.0585483 25.6509425 13.3871615 24.3534889 13.5564093 22.5481228 12.9922726 20.8160409 12.1465752 19.8965177 12.3152814 19.1799226 12.0337208"></polyline>
                    <path d="M19.7440254,8.42312389 C19.7440254,8.42312389 21.2107268,9.09997965 21.4365033,9.04358628 L20.8160409,12.1465752 L21.5493916,12.428542 C21.5493916,12.428542 22.057135,9.49500398 22.057135,9.15650841 C22.057135,9.15650841 25.2163142,8.98726062 25.4984502,8.98726062 C25.4984502,8.98726062 26.1754414,10.2848496 26.0061936,11.6388319 L26.6268252,9.83349956 L26.6831847,8.81801283 L25.7805863,7.46403053 L24.7650996,7.23838938 L23.0726217,7.29478274 L22.5085188,8.02809956 L20.5339049,7.74613274 L19.9132732,7.52035619" id="path74" fill="#DCD9D8"></path>
                    <path d="M17.5270487,12.4280174 L16.2859546,15.5873827 L14.9883319,17.4491084 C14.9883319,17.4491084 15.2702987,18.2389878 15.665323,18.2389878 C16.0603473,18.2389878 16.9629458,18.2389878 16.9629458,18.2389878 L18.2040398,17.787604 L18.0913208,15.7002372 L17.5270487,12.4280174" id="path76" fill="#FFFFFF" fill-rule="nonzero"></path>
                    <path d="M17.7695808,13.5005575 C17.7695808,13.5005575 16.1898219,16.5468823 16.1898219,16.9982323 C16.1898219,16.9982323 16.4717887,17.6752235 16.8668131,17.5059757 C17.2618374,17.3367279 18.1080763,16.8855133 18.1080763,16.8855133 L18.1080763,17.9573595 L16.1898219,18.3523838 L14.8923684,18.1831361 L17.0925896,12.9928142 L17.5438042,12.9362854" id="path78" fill="#DCD9D8"></path>
                    <polyline id="path80" fill="#FFFFFF" fill-rule="nonzero" points="10.8700593 20.9467832 9.30715752 21.116708 7.8402531 21.5680918 7.8402531 21.0603485 8.55698363 20.2699613 10.8135982 19.2544746"></polyline>
                    <path d="M8.34819956,20.7777046 C8.34819956,20.7777046 10.0972062,20.0441847 10.6613429,20.2134325 L10.7174655,19.5371184 L9.13811283,19.8749369 L8.17895177,20.5519281 L8.34819956,20.7777046" id="path82" fill="#DCD9D8"></path>
                    <path d="M19.7777058,18.0468916 C18.8204403,18.0749867 17.9555841,18.1887212 17.1983695,18.4023119 C17.2498208,18.7127124 17.1535188,19.0173584 17.230865,19.2409347 C17.441917,19.3929192 17.7956449,19.3905498 18.114677,19.4262611 C17.8388031,19.5618285 17.4512257,19.6154801 17.1328706,19.5371184 C17.1254237,19.7525708 17.0287832,19.8861073 16.9702235,20.0546781 C17.5084314,20.2467743 18.7789746,21.5061471 19.493708,21.0891206 C19.8342345,20.8907622 19.9789414,19.7578175 20.005344,19.2069159 C20.0273462,18.7499469 19.9638783,18.2889159 19.7777058,18.0468916" id="path84" fill="#D33833"></path>
                    <path d="M19.7777058,18.0468916 C18.8204403,18.0749867 17.9555841,18.1887212 17.1983695,18.4023119 C17.2498208,18.7127124 17.1535188,19.0173584 17.230865,19.2409347 C17.441917,19.3929192 17.7956449,19.3905498 18.114677,19.4262611 C17.8388031,19.5618285 17.4512257,19.6154801 17.1328706,19.5371184 C17.1254237,19.7525708 17.0287832,19.8861073 16.9702235,20.0546781 C17.5084314,20.2467743 18.7789746,21.5061471 19.493708,21.0891206 C19.8342345,20.8907622 19.9789414,19.7578175 20.005344,19.2069159 C20.0273462,18.7499469 19.9638783,18.2889159 19.7777058,18.0468916 Z" id="path86" stroke="#D33833" stroke-width="2.125"></path>
                    <path d="M15.2000608,19.6117566 C15.1975221,19.5393186 15.1944757,19.4663728 15.1915985,19.3932577 C14.8927069,19.1969303 14.4101814,19.1992998 14.0821792,19.0342832 C14.5657201,19.0131272 14.9463584,18.8966847 15.2757146,18.7325144 C15.2684369,18.5500653 15.2614978,18.3677854 15.2543894,18.1853363 C14.7065343,17.8102832 14.2060686,17.2517655 13.5610314,16.9000517 C13.2560469,16.7337149 12.18569,16.3057042 11.8612082,16.381341 C11.6776251,16.4239746 11.6610896,16.651799 11.5877038,16.8665406 C11.4313527,17.3264038 11.0713626,18.0584004 11.0399671,18.7506239 C10.9999739,19.624958 10.9117112,21.0903053 11.8539475,20.9102257 C12.614107,20.7651803 13.4982236,20.4150066 14.0867489,20.0934358 C14.4464004,19.8967699 14.654406,19.6537301 15.2000608,19.6117566" id="path88" fill="#D33833"></path>
                    <path d="M15.2000608,19.6117566 C15.1975221,19.5393186 15.1944757,19.4663728 15.1915985,19.3932577 C14.8927069,19.1969303 14.4101814,19.1992998 14.0821792,19.0342832 C14.5657201,19.0131272 14.9463584,18.8966847 15.2757146,18.7325144 C15.2684369,18.5500653 15.2614978,18.3677854 15.2543894,18.1853363 C14.7065343,17.8102832 14.2060686,17.2517655 13.5610314,16.9000517 C13.2560469,16.7337149 12.18569,16.3057042 11.8612082,16.381341 C11.6776251,16.4239746 11.6610896,16.651799 11.5877038,16.8665406 C11.4313527,17.3264038 11.0713626,18.0584004 11.0399671,18.7506239 C10.9999739,19.624958 10.9117112,21.0903053 11.8539475,20.9102257 C12.614107,20.7651803 13.4982236,20.4150066 14.0867489,20.0934358 C14.4464004,19.8967699 14.654406,19.6537301 15.2000608,19.6117566 Z" id="path90" stroke="#D33833" stroke-width="2.125"></path>
                    <path d="M15.7441925,18.5685133 C15.6605841,19.0447765 15.5639436,19.1806825 15.6013473,19.5961858 C16.871552,20.4431018 17.1100221,18.1415011 15.7441925,18.5685133" id="path92" fill="#D33833"></path>
                    <path d="M15.7441925,18.5685133 C15.6605841,19.0447765 15.5639436,19.1806825 15.6013473,19.5961858 C16.871552,20.4431018 17.1100221,18.1415011 15.7441925,18.5685133 Z" id="path94" stroke="#D33833" stroke-width="2.125"></path>
                    <path d="M17.5834082,18.1824591 C17.5834082,18.1824591 17.1883838,18.7467312 17.4705199,18.915979 C17.752656,19.0852268 18.034792,18.9158097 18.2040398,19.1979458 C18.3732876,19.4800819 18.2040398,19.6493296 18.2603993,19.9878252 C18.3167588,20.3263208 18.5990642,20.3828496 18.881031,20.4392091 C19.1629978,20.4955686 19.9530465,20.6084569 20.0657655,20.3263208 L19.7272699,21.3418075 L19.0502788,21.5674148 L16.906417,20.3263208 L16.7935288,19.7056892 L16.7935288,18.4645951" id="path96" fill="#EF3D3A"></path>
                    <path d="M11.6597695,16.3207165 C11.5920027,17.2011604 11.5202754,18.0804027 11.4404751,18.9599834 C11.3210708,20.2733462 11.755953,20.0441847 12.8944152,20.0441847 C13.0683003,20.0441847 13.9650597,19.8368562 14.0292046,19.7056892 C14.3368971,19.0772721 13.5146914,19.2169015 14.3836095,18.7430077 C15.1171294,18.3430752 16.4128905,18.9858783 16.1165376,19.8749369 C15.9506748,20.0726184 15.2523584,19.9365431 15.0020409,20.0663562 C14.5613197,20.2948407 14.1205985,20.5233252 13.6798264,20.7518097 C13.1190747,21.0427467 11.8230597,21.4668816 11.2252088,21.0603485 C9.71037345,20.0301372 11.3208169,17.4560476 11.8612082,16.381341" id="path98" fill="#EF3D3A"></path>
                    <path d="M13.1443264,36.3090664 C11.6066764,36.6671947 10.8426242,35.6655863 10.3765327,34.6267434 C9.96035243,34.727615 10.1259614,35.2935796 10.2310812,35.5819779 C10.5063119,36.338854 11.6154773,37.3463861 12.5217485,37.2098031 C12.9117461,37.1510741 13.4395115,36.794469 13.1443264,36.3090664" id="path100" fill="#231F20"></path>
                    <path d="M20.6362998,34.5580288 C20.6605022,34.5570133 20.6850431,34.556167 20.7092456,34.5551515 C21.0567113,33.8333097 21.3574646,33.0686482 21.7958164,32.4314303 C21.5021715,31.7475 19.5722389,31.1422699 19.6020265,32.3703319 C20.0193916,32.552781 20.7398794,32.4075664 21.1098551,32.6406206 C20.8959259,33.2277412 20.5872179,33.7275299 20.6362998,34.5580288" id="path102" fill="#231F20"></path>
                    <path d="M13.9315487,34.5392423 C14.2612434,33.9348584 14.3685465,33.2998407 14.8371936,32.8430409 C15.0482456,32.6374049 15.4586715,32.3867489 15.2552356,31.8148606 C15.207677,31.6799701 14.8602113,31.3792168 14.6596527,31.3201493 C13.926979,31.1038507 12.2197427,31.2754679 12.7978931,32.1888982 C13.4038171,32.1606338 14.2182544,31.7953971 14.6711615,32.2352721 C14.3233573,32.7912511 13.7033011,33.8911925 13.9315487,34.5392423" id="path104" fill="#231F20"></path>
                    <path d="M20.3612721,28.3965631 C19.258115,27.6879226 18.0280221,26.9173374 16.2204558,27.0960631 C15.8342323,27.4318507 15.6869867,28.1790796 16.0622091,28.6726062 C16.257521,28.3368186 16.1348164,27.7192334 16.6791173,27.6263164 C17.7047588,27.4508064 18.8984635,28.2537179 19.6362146,28.5343308 C20.0936914,29.3055929 19.5967799,29.5892522 19.1846615,30.085656 C18.3409613,31.1026659 17.2092013,32.3632235 17.2503285,33.8857765 C17.5913628,34.1330476 17.6208119,33.508354 17.6697246,33.3946195 C18.1102765,32.3635619 19.2190188,31.0449524 20.0281925,30.1624945 C20.2268894,29.9451803 20.5540454,29.736667 20.5904336,29.5929757 C20.6953673,29.1751029 20.3174369,28.6744679 20.3612721,28.3965631" id="path106" fill="#231F20"></path>
                    <path d="M5.81808053,29.1426073 C5.4723073,29.3399502 5.3900021,30.2092069 4.98406128,30.233917 C4.40393064,30.2691206 4.50971051,29.106219 4.5120292,28.4261814 C4.11270597,28.7887102 4.04248507,29.9048993 4.33584226,30.4781416 C4.00151018,30.6423119 3.8522167,30.2970465 3.6667719,30.1753573 C3.90510664,31.9067622 6.19954812,30.9784381 5.81808053,29.1426073" id="path108" fill="#231F20"></path>
                    <path d="M21.0636504,27.6755675 C20.5501527,26.6981615 19.8237412,25.6217456 18.3169281,25.5904347 C18.2862942,25.9060819 18.2627688,26.3864071 18.3186206,26.5764723 C19.470521,26.6871604 20.1817002,27.2734347 21.0636504,27.6755675" id="path110" fill="#231F20"></path>
                    <path d="M13.8446569,27.0419038 C14.8057135,26.5365299 16.5719834,26.4822013 17.8782378,26.5204513 C17.9483064,26.2342533 17.9466139,25.8806947 17.9493219,25.5317058 C16.2702146,25.4479281 14.2849381,25.8634314 13.8446569,27.0419038" id="path112" fill="#231F20"></path>
                    <path d="M13.6619877,26.0995321 C14.326573,24.4309181 16.6107412,24.6230144 18.5369502,24.6690498 C18.4521571,24.4524126 18.268354,24.19651 18.0398695,24.1039314 C17.4226228,23.8527677 15.7201593,23.6621947 14.8632577,24.117302 C14.3198031,24.406208 13.9706449,25.0589967 13.6728873,25.4416659 C13.5290944,25.6264845 12.8130916,26.0985166 13.6619877,26.0995321" id="path114" fill="#231F20"></path>
                    <path d="M20.2810487,16.8953635 C19.5011549,15.5596261 18.7549414,14.1877205 17.8296637,13.0095358 C18.2175796,14.1501136 18.3836117,16.0591102 18.4421715,17.5144381 C19.2537146,17.8942301 19.948646,17.4289679 20.2810487,16.8953635" id="path116" fill="#81B0C4"></path>
                    <path d="M24.4777168,12.0945992 C23.6045675,11.9198001 22.9910442,11.0711917 22.1392201,11.1256556 C22.6073595,11.7856035 23.4277035,12.0637961 24.4777168,12.0945992" id="path118" fill="#231F20"></path>
                    <path d="M24.8629248,10.7561977 C24.1512378,10.6667243 23.315323,10.5295425 22.5934812,10.6002186 C22.9351925,11.2215559 24.251771,11.0071704 24.8629248,10.7561977" id="path120" fill="#231F20"></path>
                    <path d="M25.1095188,9.55200879 C24.3096538,9.52937373 23.3154923,9.55019622 22.5552312,9.63350826 C23.0049226,10.26435 24.5907743,9.86759543 25.1095188,9.55200879" id="path122" fill="#231F20"></path>
                    <path d="M18.7760973,6.32597456 C18.8908473,5.32145509 19.2890874,4.30364967 19.2391593,3.20353905 C18.7969148,3.0543979 18.5428739,2.92395863 17.9503374,2.92475409 C17.9085332,3.85971272 17.7834591,5.28899336 17.8208628,6.18025221 C18.1123075,6.16095796 18.5420277,6.38844392 18.7760973,6.32597456" id="path124" fill="#DCD9D8"></path>
                    <path d="M17.4865985,21.130417 C17.0849735,20.8682522 16.7429237,20.540927 16.357208,20.2609912 C15.5018296,20.2186792 15.0350442,20.3202279 14.4066272,20.811385 C14.4169513,20.8508197 14.4800808,20.8332179 14.4824502,20.8816228 C15.3980808,20.4735664 16.5619978,21.0478241 17.4865985,21.130417" id="path126" fill="#F0D6B7"></path>
                    <path d="M12.6798767,14.888914 C12.9314466,15.979039 13.9171795,16.5436327 14.8123142,17.1439546 C15.7362378,15.9713721 16.2981405,14.4634082 16.9169104,13.0082157 C15.454948,13.44892 13.961167,14.1639919 12.6798767,14.888914" id="path128" fill="#81B0C4"></path>
                    <path d="M17.8208628,6.18025221 C17.7834591,5.28899336 17.9085332,3.85971272 17.9503374,2.92475409 C18.5428739,2.92395863 18.7969148,3.0543979 19.2391593,3.20353905 C19.2890874,4.30364967 18.8908473,5.32145509 18.7760973,6.32597456 C18.5420277,6.38844392 18.1123075,6.16095796 17.8208628,6.18025221 Z M8.59447201,11.2490204 C8.98519746,7.65707456 9.55111128,4.63759248 10.5890741,1.4568528 C12.8927565,0.75738385 15.6698927,0.696427566 17.7061128,1.32760334 C17.3322445,3.12282478 17.4955686,5.30842301 17.2770697,7.22417257 C17.1123916,8.66409889 17.1963385,10.1128938 16.9705619,11.5819646 C14.5032677,12.0952593 11.0158324,11.7019613 8.59447201,11.2490204 Z M17.5539591,11.5594208 C17.5331416,10.0167611 17.6230122,8.4950542 17.7408086,6.95046504 C18.3331759,7.03938783 18.7351394,7.09875996 19.2855332,7.2194167 C19.1068075,8.70641084 19.1288097,10.3796452 18.7647577,11.6950221 C18.3440077,11.690994 17.9735243,11.6999134 17.5539591,11.5594208 Z M20.5589535,11.8080796 C20.277833,11.8725292 19.9505077,11.8105845 19.6819115,11.8053717 C19.8081704,10.5478437 20.1145088,9.16019801 20.2223197,7.84020066 C20.6449314,7.82705011 20.870708,8.02637323 21.2183429,8.09341228 C21.2369602,9.25209956 21.1171327,10.8484447 20.5589535,11.8080796 Z M25.1090111,7.65086316 C25.9899458,7.86479237 26.5438938,8.94374701 26.297469,10.0517954 C26.1321139,10.7964856 25.8376228,12.1987374 25.5224834,12.6751361 C25.2895985,13.02751 24.658135,13.4888456 24.1539458,13.1659546 C23.333771,12.6407618 21.8889027,12.4883034 21.290781,11.8525749 C21.5906881,10.8540129 21.6837743,9.4824458 21.8074945,8.21718319 C22.8321206,8.15330907 24.0928473,8.49915 24.94501,8.1321531 C24.350104,7.93944757 23.5781648,7.93792434 23.0641593,7.65707456 C23.4842323,7.45418031 24.4677312,7.49517212 25.1090111,7.65086316 Z M16.9169104,13.0082157 C16.2981405,14.4634082 15.7362378,15.9713721 14.8123142,17.1439546 C13.9171795,16.5436327 12.9314466,15.979039 12.6798767,14.888914 C13.961167,14.1639919 15.454948,13.44892 16.9169104,13.0082157 Z M18.4421715,17.5144381 C18.3836117,16.0591102 18.2175796,14.1501136 17.8296637,13.0095358 C18.7549414,14.1877205 19.5011549,15.5596261 20.2810487,16.8953635 C19.948646,17.4289679 19.2537146,17.8942301 18.4421715,17.5144381 Z M16.7131361,18.1288075 C16.3626239,18.1665498 16.0650863,17.7258285 15.609302,17.9164015 C15.5048761,17.8009746 15.4099281,17.6759004 15.3034712,17.5631814 C16.3101571,16.3499963 16.7676338,14.6287633 17.5451582,13.2030538 C17.962354,14.572573 17.9142876,16.0729885 18.0061892,17.5677511 C17.4329469,17.5313628 17.1149303,18.0861571 16.7131361,18.1288075 Z M15.6013473,19.5961858 C15.5639436,19.1806825 15.6605841,19.0447765 15.7441925,18.5685133 C17.1100221,18.1415011 16.871552,20.4431018 15.6013473,19.5961858 Z M14.0867489,20.0934358 C13.4982236,20.4150066 12.614107,20.7651803 11.8539475,20.9102257 C10.9117112,21.0904746 10.9999739,19.624958 11.0399671,18.7506239 C11.0713626,18.0584004 11.4313527,17.3264038 11.5877038,16.8665406 C11.6610896,16.651799 11.6776251,16.4239746 11.8612082,16.381341 C12.18569,16.3057042 13.2560469,16.7337149 13.5610314,16.9000517 C14.2060686,17.2517655 14.7065343,17.8102832 15.2543894,18.1853363 C15.2614978,18.3677854 15.2684369,18.5500653 15.2757146,18.7325144 C14.9463584,18.8966847 14.5657201,19.0131272 14.0821792,19.0342832 C14.4101814,19.1992998 14.8927069,19.1969303 15.1915985,19.3932577 C15.1944757,19.4663728 15.1975221,19.5393186 15.2000608,19.6117566 C14.654406,19.6537301 14.4464004,19.8967699 14.0867489,20.0934358 Z M8.46542058,21.1145077 C7.97697146,20.6186117 9.83539679,19.9426361 10.427104,19.9062478 C10.4238037,20.2200332 10.6059312,20.5158783 10.5692383,20.7409779 C9.86647069,20.8643595 8.94288551,20.7829513 8.46542058,21.1145077 Z M14.4824502,20.8816228 C14.4800808,20.8332179 14.4169513,20.8508197 14.4066272,20.811385 C15.0350442,20.3202279 15.5018296,20.2186792 16.357208,20.2609912 C16.7429237,20.540927 17.0849735,20.8682522 17.4865985,21.130417 C16.5619978,21.0478241 15.3980808,20.4735664 14.4824502,20.8816228 Z M20.005344,19.2069159 C19.9789414,19.7578175 19.8342345,20.8907622 19.493708,21.0891206 C18.7789746,21.5063164 17.5084314,20.2467743 16.9702235,20.0546781 C17.0287832,19.8861073 17.1254237,19.7525708 17.1328706,19.5371184 C17.4512257,19.6154801 17.8388031,19.5618285 18.114677,19.4262611 C17.7956449,19.3905498 17.441917,19.3929192 17.230865,19.2409347 C17.1535188,19.0173584 17.2498208,18.7127124 17.1983695,18.4023119 C17.9555841,18.1887212 18.8204403,18.0749867 19.7777058,18.0468916 C19.9638783,18.2889159 20.0273462,18.7499469 20.005344,19.2069159 Z M7.64311327,20.6348595 C7.489724,20.7441936 6.45209967,22.0942832 6.30994845,22.0382622 C4.43236427,21.2978031 2.67674004,20.0174436 1.10789768,18.8064757 C2.6036927,15.5968437 3.20750111,11.6645406 3.31419491,7.87445642 C5.02769336,7.07303429 6.53274624,5.91771504 8.85792312,5.79707522 C8.58885299,7.70077434 8.3432406,9.39920973 8.19051139,11.19151 C7.60628496,11.4377824 6.76810221,11.1803396 6.22136416,11.2678746 C6.21672677,11.9267393 7.05636504,11.5563913 7.12629823,11.999465 C7.17900199,12.3345926 6.66431947,12.3599798 6.83190863,12.8876944 C7.25932699,12.7323249 7.48378341,12.3891412 7.93961847,12.2602759 C8.35613728,13.171506 7.93379635,14.7837942 7.99382854,15.5454093 C8.00520199,15.6884067 8.06523418,16.3376413 8.38555254,16.2237206 C8.66904259,16.1228997 8.36935553,14.4970716 8.40042942,13.7762452 C8.42872765,13.1121338 8.3202229,12.4695338 8.58917456,12.0526258 C10.8360066,12.3584565 13.1191931,12.5561379 15.5502345,12.6228385 C15.0154115,12.8523216 14.3800553,13.0695003 13.6834653,13.4621383 C13.3058396,13.6750181 12.1154861,14.1179735 12.0065243,14.4766434 C11.8326561,15.0481762 12.4626979,15.3526191 12.570458,15.8425915 C11.4363116,15.2240416 11.2150371,16.4354834 10.9467455,17.2937389 C10.7036549,18.071094 10.5652779,18.6517832 10.505635,19.1001206 C9.52863518,19.5658905 8.48405476,20.0375841 7.64311327,20.6348595 Z M19.0130442,21.8749381 C20.5774015,22.6335066 20.8593684,19.0398684 20.2461836,17.8822135 C20.3409624,17.536948 20.6669336,17.4047655 20.7999624,17.094365 C19.9269823,15.5305324 18.9573617,14.0707702 18.0666106,12.5253348 C18.7292157,12.9378086 19.6756493,12.59911 20.4553739,12.9078518 C20.7403872,13.0205708 20.9467002,13.6730379 21.1624912,14.1949981 C21.7560431,15.6310317 22.3792135,17.4414923 22.6564414,18.8118916 C22.7190631,19.1241538 22.8896648,19.8045299 22.8514148,20.0824347 C22.783208,20.5800232 22.1080785,20.9489834 21.7646748,21.2566759 C21.1320265,21.82501 20.7336173,22.3251372 20.0737201,22.8565752 C19.8061394,22.4615509 19.2318816,22.1961704 19.0130442,21.8749381 Z M4.06543507,35.7478407 C3.32001704,34.9276659 3.47604657,33.390896 3.56628949,32.2975553 C4.9136542,33.1451482 6.70199403,32.2305332 6.68513695,30.7888805 C7.32841394,30.8059746 6.92545188,31.5922998 6.80909403,32.0988584 C6.4288281,33.7534248 7.44973075,35.5510055 6.8553833,37.0640808 C5.70138418,36.9765796 4.75332577,36.5052246 4.06543507,35.7478407 Z M9.39905907,40.508104 C7.71154015,40.0298097 5.54879038,38.8036095 4.85534834,37.2876571 C5.39230387,37.3656803 5.7650552,37.6364768 6.29475,37.6699878 C6.49493628,37.6830199 6.75720265,37.5860409 6.9872781,37.6432467 C7.44577035,37.7569812 7.83272157,38.7849923 8.17861327,39.1674923 C8.51578872,39.5410221 8.92105254,39.7006228 9.19839889,40.0411493 C9.37658296,40.1271272 9.64003407,40.1212035 9.65015509,40.3887843 C9.57292732,40.4713772 9.49160376,40.5343374 9.39905907,40.508104 Z M18.1835608,40.0582434 C16.4320155,41.0464812 13.4672851,41.7898175 11.6041039,40.8609856 C10.1007096,40.1113872 8.06853451,38.8711394 7.37568485,37.2995044 C8.02292223,35.782875 7.18396095,34.3931814 7.13041095,32.853365 C7.10197732,32.0340365 7.51617743,31.3187954 7.54791139,30.4268595 C7.32643374,30.0614535 6.64976416,30.0164336 6.18135398,30.0414823 C6.02368274,30.8305155 5.74765653,31.7173739 4.93514867,31.8063982 C3.78544845,31.9321493 2.94482854,30.9806383 2.89259867,29.9863075 C2.83078938,28.8169746 3.79072898,26.8789181 5.15132887,27.0134701 C5.67692788,27.0654292 5.80604701,27.5922976 6.37871383,27.5868816 C6.68909735,26.967604 5.89992876,26.7731383 5.8187406,26.3302168 C5.79758462,26.2158053 5.88418872,25.7686527 5.93455686,25.5589546 C6.18169248,24.5378827 6.73261095,23.216396 7.27486394,22.4390409 C7.96309314,21.4530033 9.31523064,21.3044038 10.7698985,21.2077633 C11.0297107,21.7674657 11.9868239,21.7214303 12.6104681,21.575031 C11.8630699,21.8710454 11.1682231,22.588656 10.5923744,23.2238429 C9.93092024,23.9526239 9.26088518,24.7343794 9.22703562,25.686906 C10.4770152,23.9527931 11.5096975,22.4383639 13.7826445,21.6755642 C15.5025066,21.0987677 17.5111394,21.9399292 18.8326261,22.8679148 C19.3809889,23.2536305 19.7083142,23.8656305 20.0980918,24.4258407 C21.5565,26.523667 22.2370454,29.5179989 22.0874303,32.42026 C22.0258241,33.6171803 22.0285321,34.8100387 21.6269071,35.6153197 C21.2071726,36.4573274 19.7875221,37.2106493 18.9565155,36.4490343 C18.8025,37.2678551 19.6475542,37.7742445 20.6401925,37.4795841 C19.9323982,38.3930144 19.1895697,39.4905863 18.1835608,40.0582434 Z M21.4468274,13.0518478 C22.8155343,13.7322747 25.3728684,14.883295 26.2309546,13.0493429 C26.5476173,12.3733334 26.9191162,11.2305893 27.0831173,10.5327637 C27.3148175,9.54828319 26.8319535,7.47902588 25.820021,7.14867113 C24.9262235,6.85692179 23.8833186,6.87469281 22.8067334,7.09095763 C22.6799668,7.196399 22.5388142,7.3802021 22.4401427,7.5717906 C21.6714192,7.60161206 20.9516084,7.53052799 20.3443473,7.21452544 C20.4018916,6.64602212 20.0173606,6.55478064 19.6568628,6.43769502 C19.3896206,5.37805155 20.1915166,3.99424779 19.9995896,3.02801217 C19.8626681,2.33964757 19.0157522,2.23320763 18.3932588,2.10442699 C18.3729491,1.72189314 18.4205077,1.40257503 18.4629889,1.07895465 C18.3206515,0.554484524 17.6822489,0.255921272 17.0773573,0.18280115 C15.0871726,-0.0565260531 12.0653718,-0.16402497 10.1510778,0.524338108 C9.6168979,1.83461217 9.1960802,3.42826626 8.75114469,4.92445055 C6.8841385,4.72505973 5.37412666,5.73003617 3.95060044,6.38844392 C3.45773396,6.61692843 2.77591925,6.74279801 2.59179458,7.13511438 C2.41328894,7.51494027 2.48633628,8.24289192 2.44204414,8.93052876 C2.32932511,10.6868131 2.2328031,12.3808142 1.76901338,14.1790719 C1.56077091,14.9860284 1.1978021,15.6980708 0.944590487,16.4756121 C0.710554646,17.1962522 0.301651991,18.0868341 0.19500896,18.8054602 C0.0368807522,19.8705365 1.03979237,19.9297732 1.68108916,20.3913119 C2.67244115,21.1050299 3.4505917,21.4997157 4.52424889,22.1438728 C4.84224856,22.334615 5.80122345,22.817479 5.91030365,23.0398706 C6.12714392,23.4807611 5.53809392,24.1024082 5.38060885,24.4480122 C5.13149303,24.9945133 5.00157843,25.45876 4.96588407,25.9979834 C4.06523197,26.1403208 3.38248639,26.6763285 2.97008031,27.2807124 C2.28787633,28.2809668 1.81476106,30.1315221 2.40501272,31.539156 C2.45130199,31.6500133 2.68215597,31.8680044 2.71620863,32.0382677 C2.78338308,32.3735476 2.58979746,32.8193462 2.57776394,33.1759513 C2.51575155,35.0055199 2.88731814,36.5818938 4.11898507,37.1336416 C4.61899381,39.1255188 6.40858606,39.7877854 8.09464945,40.7777157 C8.72491128,41.1476914 9.41967345,41.3841305 10.1371994,41.6481571 C12.7111537,42.5954369 16.6603308,42.4170498 18.7965763,40.8014104 C19.7023905,40.1162954 21.1503053,38.6697345 21.6682035,37.6224292 C23.0360642,34.8574281 22.9389159,30.2364558 21.9821582,26.8729945 C21.8535299,26.4214414 21.6670188,25.7576515 21.4065465,25.2152124 C21.2249436,24.8364358 20.6605022,24.0785442 20.7290476,23.7441106 C20.7996239,23.3983374 22.0160077,22.4747522 22.2768186,22.22325 C22.7464812,21.7701737 23.6387555,21.1688363 23.7110243,20.5971173 C23.7887091,19.9886715 23.4429358,19.1563108 23.2677644,18.5691903 C22.682167,16.6098256 22.1107865,14.7986711 21.4468274,13.0518478 Z" id="path130" fill="#231F20"></path>
                    <path d="M12.3154015,26.6150608 C12.3896506,26.7139015 12.7978931,26.8640243 13.3691044,26.5889967 C13.3691044,26.5889967 12.6921133,26.4761084 12.7484389,25.3473949 L12.4663367,25.4039237 C12.4663367,25.4039237 12.1747905,26.427365 12.3154015,26.6150608" id="path132" fill="#F7E4CD"></path>
                    <path d="M17.2618374,16.9136084 C17.2618374,16.7423127 17.122885,16.6034111 16.9514369,16.6034111 C16.7801582,16.6034111 16.6412058,16.7423127 16.6412058,16.9136084 C16.6412058,17.0848872 16.7801582,17.2240088 16.9514369,17.2240088 C17.122885,17.2240088 17.2618374,17.0848872 17.2618374,16.9136084" id="path134" fill="#1D1919"></path>
                    <path d="M17.5720686,15.4750022 C17.5720686,15.3037065 17.4331162,15.1648049 17.2616681,15.1648049 C17.0903894,15.1648049 16.9514369,15.3037065 16.9514369,15.4750022 C16.9514369,15.6462979 17.0903894,15.7854027 17.2616681,15.7854027 C17.4331162,15.7854027 17.5720686,15.6462979 17.5720686,15.4750022" id="path136" fill="#1D1919"></path>
                </g>
            </g>
        </g>
    </g>
</svg>